# xmcd
#
# Track frame offsets: 
#        150
#        14247
#        28290
#        42889
#        55861
#        71542
#        85210
#        98808
#        112650
#        128433
#        144099
#        161287
#
# Disc length: 2330 seconds
#
# Revision: 0
# Processed by: cddbd v1.5.2PL0 Copyright (c) Steve Scherf et al.
# Submitted via: ExactAudioCopy v0.99pb1
#
DISCID=9109180c
DTITLE=Apvedcels - Viss kas bijis reiz
DYEAR=2007
DGENRE=Country
TTITLE0=Pastnieks
TTITLE1=Abeles
TTITLE2=Zirgu zaglis
TTITLE3=Marta
TTITLE4=Pirmais sniegs
TTITLE5=Pedejais skupsts
TTITLE6=Pasakas lielejiem
TTITLE7=Saulespuke
TTITLE8=Zimejums
TTITLE9=Viss kas bijis reiz
TTITLE10=Kamer list
TTITLE11=Cela stabi
EXTD=
EXTT0=
EXTT1=
EXTT2=
EXTT3=
EXTT4=
EXTT5=
EXTT6=
EXTT7=
EXTT8=
EXTT9=
EXTT10=
EXTT11=
PLAYORDER=
